<?xml version="1.0" encoding="utf-8"?>
<!-- Generator: Adobe Illustrator 25.0.1, SVG Export Plug-In . SVG Version: 6.00 Build 0)  -->
<svg version="1.1" id="Calque_1" xmlns="http://www.w3.org/2000/svg" xmlns:xlink="http://www.w3.org/1999/xlink" x="0px" y="0px"
	 viewBox="0 0 800 200" style="enable-background:new 0 0 800 200;" xml:space="preserve">
<style type="text/css">
	.st0{fill:#231F20;}
	.st1{fill:#FFFFFF;}
</style>
<path class="st0" d="M779.2,103.8h4.3V90.3c0-3.4,0.7-5.7,2.2-6.9c1.5-1.2,3.1-1.8,4.8-1.8c2.1,0,3.6,0.7,4.4,2.1
	c0.5,0.9,0.7,2.2,0.7,4.1v16.1h4.4V87.5c0-2.5-0.4-4.5-1.1-5.9c-1.3-2.6-3.8-3.9-7.5-3.9c-2.1,0-3.8,0.4-5.2,1.4
	c-0.8,0.5-1.7,1.4-2.7,2.7V68.7h-4.3L779.2,103.8L779.2,103.8z M765.8,77.6c-3.4,0-6.1,1.2-8.3,3.8s-3.3,6-3.3,10.5
	c0,3.7,1,6.7,3,9.1s4.7,3.7,8,3.7c3,0,5.4-0.8,7.3-2.3c1.9-1.6,3.1-4,3.6-7.4H772c-0.4,1.9-1.1,3.4-2.2,4.4c-1,1.1-2.5,1.6-4.2,1.6
	c-2.3,0-4-0.9-5.1-2.6c-1.1-1.8-1.6-3.9-1.6-6.5c0-2.5,0.4-4.7,1.2-6.4c1.2-2.7,3.1-4,5.9-4c2,0,3.5,0.5,4.4,1.6
	c0.9,1,1.5,2.3,1.7,3.9h4.2c-0.4-3.4-1.5-5.8-3.3-7.2C771.1,78.3,768.7,77.6,765.8,77.6 M744.7,103.8h5v-5.2h-5V103.8z M698.6,106.3
	c0.1-3.8,1.3-6.9,3.6-9.3s5.1-3.7,8.4-3.7c4.7,0,8,1.8,10,5.3c1.1,1.9,1.8,4.5,2.1,7.6C722.7,106.3,698.6,106.3,698.6,106.3z
	 M711.1,87c-6.1,0-11.1,2.2-14.9,6.6c-3.8,4.4-5.7,10.1-5.7,17.1c0,7.2,1.9,12.7,5.7,16.7s8.4,6,13.8,6c2.2,0,4.2-0.2,6-0.6
	c3.3-0.8,6-2.2,8.2-4.4c1.3-1.2,2.5-2.9,3.6-4.8c1.1-2,1.7-3.8,1.9-5.4h-7.2c-0.5,1.9-1.4,3.7-2.7,5.1c-2.3,2.6-5.3,3.8-9.1,3.8
	c-4.1,0-7.1-1.3-9-4s-3-6.3-3.1-10.7h31.8c0-4.4-0.2-7.6-0.7-9.7c-0.5-2.9-1.5-5.5-2.9-7.7c-1.5-2.3-3.7-4.2-6.6-5.7
	C717.2,87.7,714.2,87,711.1,87 M625.4,131.7h7.4v-23.2c0-5.6,1.1-9.5,3.4-11.7c2.3-2.2,4.8-3.2,7.6-3.2c3,0,5.1,1,6.3,3.1
	c0.7,1.4,1.1,3.5,1.1,6.5v28.6h7.5v-25.5c0-4.5,1-7.8,3.1-9.7c2.1-1.9,4.6-2.9,7.5-2.9c2.1,0,3.9,0.6,5.3,1.6s2.2,3.1,2.2,6v30.4
	h7.6v-29.2c0-3.9-0.6-6.9-1.7-9.2c-2.1-4.2-6.1-6.4-12-6.4c-2.8,0-5.2,0.6-7.4,1.7s-4.1,2.9-5.8,5.2c-1-1.9-2.1-3.3-3.3-4.3
	c-2.1-1.7-4.9-2.6-8.4-2.6c-3.1,0-5.8,0.8-8.3,2.5c-1.4,1-3,2.6-4.7,4.7v-6.2h-7.3L625.4,131.7L625.4,131.7z M598.4,86.7
	c-6.2,0-11.2,2.2-14.9,6.5s-5.6,10.2-5.6,17.6c0,6.9,1.8,12.3,5.3,16.4c3.5,4.1,8.3,6.1,14.2,6.1c7.2,0,12.5-2.3,15.9-6.9
	s5.1-10.4,5.1-17.5c0-7.3-1.9-12.8-5.8-16.6C608.8,88.6,604,86.7,598.4,86.7 M598.1,126.9c-4.4,0-7.6-1.6-9.6-4.7s-3-7-3-11.6
	c0-4.8,1-9,3-12.4s5.3-5.2,9.7-5.2c5,0,8.5,2,10.6,6.1c1.3,2.6,1.9,5.9,1.9,10c0,4.5-0.9,8.6-2.7,12.3
	C606.3,125.1,603,126.9,598.1,126.9 M523.7,131.7h8.2v-28.1h30.9v28.1h8.2v-60h-8.2v24.8h-30.9V71.7h-8.2V131.7L523.7,131.7z"/>
<path class="st1" d="M475.2,106.3c0.1-3.8,1.3-6.9,3.6-9.3c2.3-2.4,5.1-3.7,8.4-3.7c4.7,0,8,1.8,10,5.3c1.1,1.9,1.8,4.5,2.1,7.7
	H475.2z M487.7,87c-6.1,0-11.1,2.2-14.9,6.6s-5.7,10.1-5.7,17.1c0,7.1,1.9,12.7,5.6,16.7c3.8,4,8.4,5.9,13.8,5.9
	c2.2,0,4.2-0.2,6-0.6c3.3-0.8,6-2.2,8.2-4.4c1.3-1.2,2.5-2.9,3.6-4.8c1.1-2,1.7-3.8,1.9-5.4H499c-0.5,1.9-1.4,3.7-2.7,5.1
	c-2.3,2.6-5.3,3.8-9.1,3.8c-4.1,0-7.1-1.3-9-4c-2-2.7-3-6.3-3.1-10.7H507c0-4.4-0.2-7.6-0.6-9.7c-0.5-2.9-1.5-5.5-2.9-7.7
	c-1.5-2.3-3.7-4.2-6.6-5.7C493.8,87.7,490.8,87,487.7,87 M450.3,81.3v6.9h-6.1V94h6.1v37.8h7.3V93.9h7.4v-5.8h-7.4
	c0-4.7,0.2-7.7,0.7-8.8s1.8-1.7,4-1.7c0.3,0,0.6,0,1,0s0.9,0.1,1.7,0.1V71c-0.6-0.1-1.2-0.1-1.7-0.1s-1,0-1.4,0
	c-4.9,0-8.2,1.2-9.9,3.8C451,76,450.4,78.2,450.3,81.3 M415.7,106.7c-4.1,0.5-7.4,1.9-10,4.1c-2.5,2.2-3.8,5.4-3.8,9.4
	c0,3.7,1.3,6.8,3.9,9.2c2.6,2.5,5.9,3.7,10,3.7c3.4,0,6.5-0.7,9.3-2.2s5-3.2,6.5-5.1c0.2,1.8,0.7,3.1,1.3,4.1c1.1,1.8,3,2.7,5.5,2.7
	c1,0,1.9,0,2.5-0.1s1.5-0.3,2.6-0.6v-5.4c-0.5,0.1-0.9,0.1-1.3,0.2s-0.8,0.1-1.1,0.1c-1,0-1.7-0.2-2-0.7s-0.5-1.1-0.5-1.8V99
	c0-4.1-1.6-7.2-4.8-9.2c-3.2-2-7.4-2.9-12.5-2.9c-4.4,0-8.3,1.1-11.7,3.2c-3.4,2.1-5.1,5.9-5.2,11.3h6.9c0.3-2.3,0.9-4,1.8-5.1
	c1.6-2.1,4.3-3.1,8.2-3.1c3.3,0,5.9,0.6,7.6,1.7s2.7,3,2.7,5.5c0,1.2-0.2,2.2-0.5,2.8c-0.6,1.2-1.7,1.9-3.4,2.1L415.7,106.7z
	 M409.6,120.1c0-2.8,1.1-4.8,3.4-6.1c1.4-0.8,3.4-1.3,6-1.7l4.5-0.6c1.4-0.2,2.8-0.4,4.2-0.8s2.6-0.9,3.5-1.4v5.9
	c0,4.5-2,7.8-6.1,9.8c-2.4,1.2-4.9,1.8-7.5,1.8c-2.1,0-4-0.6-5.5-1.8C410.4,123.9,409.6,122.2,409.6,120.1 M348.9,112.3
	c-0.1,6.5,1.9,11.6,6.1,15.4c4.1,3.8,9.8,5.7,17.1,5.7c6.2,0,11.7-1.4,16.5-4.3s7.1-7.6,7.1-14.3c0-5.3-1.9-9.4-5.5-12.2
	c-2.1-1.6-5.2-2.9-9.1-3.8l-8.2-1.9c-5.5-1.3-9-2.4-10.6-3.3c-2.4-1.4-3.6-3.5-3.6-6.5c0-2.7,1-5,3-7s5.3-3,9.9-3
	c5.7,0,9.7,1.6,12.1,4.7c1.3,1.7,2.1,4.2,2.5,7.4h7.6c0-6.7-2.1-11.5-6.4-14.6c-4.3-3-9.5-4.6-15.6-4.6c-6.7,0-11.8,1.7-15.4,5.2
	s-5.5,7.9-5.5,13.3c0,5,1.9,8.7,5.5,11.2c2.1,1.4,5.8,2.8,10.9,4l7.9,1.8c4.3,1,7.4,2.2,9.4,3.6s3,3.7,3,7c0,4.4-2.3,7.4-7,9.1
	c-2.4,0.9-5.1,1.3-8,1.3c-6.6,0-11.1-2-13.8-6c-1.4-2.1-2.1-4.9-2.3-8.3L348.9,112.3L348.9,112.3z"/>
<path class="st0" d="M302.9,106.3c0.1-3.8,1.3-6.9,3.6-9.3s5.1-3.7,8.4-3.7c4.7,0,8,1.8,10,5.3c1.1,1.9,1.8,4.5,2.1,7.6
	C327,106.3,302.9,106.3,302.9,106.3z M315.4,87c-6.1,0-11.1,2.2-14.9,6.6s-5.7,10.1-5.7,17.1c0,7.2,1.9,12.7,5.6,16.7
	c3.8,4,8.4,6,13.8,6c2.2,0,4.2-0.2,6-0.6c3.3-0.8,6-2.2,8.2-4.4c1.3-1.2,2.5-2.9,3.6-4.8c1.1-2,1.7-3.8,1.9-5.4h-7.2
	c-0.5,1.9-1.4,3.7-2.7,5.1c-2.3,2.6-5.3,3.8-9.1,3.8c-4.1,0-7.1-1.3-9-4c-2-2.7-3-6.3-3.1-10.7h31.9c0-4.4-0.2-7.6-0.6-9.7
	c-0.5-2.9-1.5-5.5-2.9-7.7c-1.5-2.3-3.7-4.2-6.6-5.7C321.5,87.7,318.5,87,315.4,87 M229.7,131.7h7.4v-23.2c0-5.6,1.1-9.5,3.4-11.7
	c2.3-2.2,4.8-3.2,7.6-3.2c3.1,0,5.1,1,6.3,3.1c0.7,1.4,1.1,3.5,1.1,6.5v28.6h7.5v-25.5c0-4.5,1-7.8,3.1-9.7c2.1-1.9,4.6-2.9,7.5-2.9
	c2.1,0,3.9,0.6,5.3,1.6s2.2,3.1,2.2,6v30.4h7.6v-29.2c0-3.9-0.6-6.9-1.7-9.2c-2.1-4.2-6.1-6.4-12-6.4c-2.8,0-5.2,0.6-7.4,1.7
	c-2.2,1.1-4.1,2.9-5.8,5.2c-1-1.9-2.1-3.3-3.3-4.3c-2.1-1.7-4.9-2.6-8.4-2.6c-3.1,0-5.8,0.8-8.3,2.5c-1.4,1-3,2.6-4.7,4.7v-6.2h-7.3
	L229.7,131.7L229.7,131.7z M202.7,86.7c-6.2,0-11.2,2.2-14.9,6.5s-5.6,10.2-5.6,17.6c0,6.9,1.8,12.3,5.3,16.4
	c3.5,4.1,8.3,6.1,14.2,6.1c7.2,0,12.5-2.3,15.9-6.9s5.1-10.4,5.1-17.5c0-7.3-1.9-12.8-5.8-16.6C213.1,88.6,208.3,86.7,202.7,86.7
	 M202.4,126.9c-4.4,0-7.6-1.6-9.6-4.7s-3-7-3-11.6c0-4.8,1-9,3-12.4s5.3-5.2,9.7-5.2c5,0,8.6,2,10.6,6.1c1.3,2.6,1.9,5.9,1.9,10
	c0,4.5-0.9,8.6-2.7,12.3C210.6,125.1,207.3,126.9,202.4,126.9 M128,131.7h8.2v-28.1h30.9v28.1h8.2v-60h-8.2v24.8h-30.9V71.7H128
	V131.7z"/>
<path class="st0" d="M26.5,98.2l27.9-30.4l27.9,30.4v39.5H26.5V98.2z M54.4,50.1l-54.8,59.8h14.9v39.8h79.7v-39.8h14.9L54.4,50.1z"
	/>
<g>
	<path class="st1" d="M63.7,116.9l1.6,1.4l1.6-1.4c5.6-5.1,9.3-8.5,9.3-12.6c0-3.4-2.7-6-6-6c-1.9,0-3.7,0.9-4.9,2.3
		c-1.2-1.4-3-2.3-4.9-2.3c-3.4,0-6,2.7-6,6C54.4,108.5,58.1,111.8,63.7,116.9"/>
</g>
</svg>
