<?xml version="1.0" encoding="utf-8"?>
<!-- Generator: Adobe Illustrator 25.0.1, SVG Export Plug-In . SVG Version: 6.00 Build 0)  -->
<svg version="1.1" id="Calque_1" xmlns="http://www.w3.org/2000/svg" xmlns:xlink="http://www.w3.org/1999/xlink" x="0px" y="0px"
	 viewBox="0 0 109.5 99.6" style="enable-background:new 0 0 109.5 99.6;" xml:space="preserve">
<style type="text/css">
	.st0{fill:#231F20;}
	.st1{fill:#FFFFFF;}
</style>
<path class="st0" d="M26.9,48.1l27.9-30.4l27.9,30.4v39.5H26.9V48.1z M54.8,0L0.1,59.8H15v39.8h79.7V59.8h14.9L54.8,0z"/>
<g>
	<path class="st1" d="M64.1,66.8l1.6,1.4l1.6-1.4c5.6-5.1,9.3-8.5,9.3-12.6c0-3.4-2.7-6-6-6c-1.9,0-3.7,0.9-4.9,2.3
		c-1.2-1.4-3-2.3-4.9-2.3c-3.4,0-6,2.7-6,6C54.8,58.4,58.5,61.7,64.1,66.8"/>
</g>
</svg>
